#!OML:ASF H:\Terrain\Patient Classification 1\Walking\steve\steve.ASF
:FULLY-SPECIFIED
:DEGREES
169
root 7.98654 15.9803 8.54943 7.71955 -12.1212 -3.52809
lowerback -1.47867 5.41986 2.96635
upperback -3.86925 7.23495 -0.564403
thorax -2.72314 3.52655 -2.26476
lowerneck -11.4055 -2.21674 -2.57097
upperneck 15.1809 -3.76146 7.07444
head 6.68981 -1.37408 2.35365
rclavicle 7.18979e-014 7.55382e-015
rhumerus -22.2317 5.92857 -83.5166
rradius 73.6431
rwrist -2.80758
rhand 178.91 -69.4051
rfingers 7.12502
rthumb -155.454 -40.9585
lclavicle 7.18979e-014 7.55382e-015
lhumerus -68.1434 17.6609 56.1299
lradius 4.12968
lwrist -22.6421
lhand -17.9881 -10.0236
lfingers 7.12502
lthumb 8.28177 19.7941
rfemur 12.1548 5.81406 22.9539
rtibia 26.6332
rfoot 12.5133 13.5541
rtoes -3.62312
lfemur -41.548 3.82952 -17.1716
ltibia 31.4613
lfoot -4.38801 7.35407
ltoes -3.89599
170
root 7.988 15.9295 8.80511 7.50147 -11.7862 -2.9807
lowerback -1.45877 5.29771 2.24502
upperback -3.84694 7.06472 -0.762705
thorax -2.77995 3.45776 -2.07732
lowerneck -11.3986 -2.29458 -2.91156
upperneck 15.0135 -3.91753 7.78621
head 6.66465 -1.41336 2.62484
rclavicle -7.15625e-015 1.11319e-014
rhumerus -23.6674 5.41656 -83.7393
rradius 73.8863
rwrist -3.24709
rhand 178.667 -69.3607
rfingers 7.12502
rthumb -155.687 -40.8826
lclavicle -7.15625e-015 1.11319e-014
lhumerus -67.628 17.8252 55.8716
lradius 4.03169
lwrist -23.3401
lhand -17.5567 -9.03782
lfingers 7.12502
lthumb 8.6981 20.763
rfemur 11.136 6.2649 22.4821
rtibia 30.4648
rfoot 17.3208 6.90556
rtoes 12.9475
lfemur -41.7849 3.63951 -18.0565
ltibia 33.3102
lfoot -3.96069 6.61608
ltoes -4.22538
171
root 7.99508 15.9556 9.05648 7.3666 -11.3491 -2.73206
lowerback -1.2634 5.19237 1.97651
upperback -3.81807 6.92241 -0.970583
thorax -2.87158 3.38978 -2.16127
lowerneck -11.4307 -2.40517 -2.90951
upperneck 14.6879 -4.10425 8.12444
head 6.58525 -1.48163 2.71365
rclavicle 6.42447e-014 1.07344e-014
rhumerus -24.8919 4.57275 -84.0449
rradius 73.8626
rwrist -3.43627
rhand 178.585 -69.0175
rfingers 7.12502
rthumb -155.765 -40.529
lclavicle 6.42447e-014 1.07344e-014
lhumerus -66.7204 18.0251 55.6835
lradius 3.64223
lwrist -23.5655
lhand -17.9049 -8.51611
lfingers 7.12502
lthumb 8.36214 21.2984
rfemur 9.23133 6.06069 22.2358
rtibia 34.5325
rfoot 19.9776 4.97597
rtoes 3.56063
lfemur -41.7817 3.33993 -18.543
ltibia 34.8259
lfoot -4.13535 5.31823
ltoes -0.290981
172
root 7.99756 15.9716 9.29405 7.19507 -11.172 -2.30827
lowerback -0.887891 5.14293 1.44068
upperback -3.78273 6.85245 -1.2057
thorax -3.08142 3.36321 -2.14528
lowerneck -11.7431 -2.49962 -2.87319
upperneck 14.4977 -4.27181 8.40637
head 6.59584 -1.5342 2.77939
rclavicle -2.68856e-014 -5.1684e-015
rhumerus -25.912 3.80209 -84.4065
rradius 73.6313
rwrist -3.50676
rhand 178.478 -69.4966
rfingers 7.12502
rthumb -155.868 -40.9944
lclavicle -2.68856e-014 -5.1684e-015
lhumerus -65.785 18.3555 55.5355
lradius 3.26276
lwrist -23.4044
lhand -18.2337 -8.16526
lfingers 7.12502
lthumb 8.0448 21.6616
rfemur 7.43979 6.26192 21.8403
rtibia 38.3891
rfoot 22.1815 4.09142
rtoes -4.79509
lfemur -41.6545 3.23784 -19.212
ltibia 36.209
lfoot -4.56479 4.30638
ltoes 1.97088
173
root 8.0004 15.9893 9.55164 6.92861 -11.2258 -1.40561
lowerback -0.910988 5.10232 0.44996
upperback -3.59436 6.77976 -1.50229
thorax -2.95388 3.35265 -1.89395
lowerneck -12.2385 -2.55606 -3.0601
upperneck 14.4448 -4.36471 8.75181
head 6.68381 -1.54997 2.90988
rclavicle -3.27964e-014 -7.15625e-015
rhumerus -26.9872 3.43971 -84.76
rradius 73.5766
rwrist -3.63418
rhand 178.356 -70.2576
rfingers 7.12502
rthumb -155.985 -41.74
lclavicle -3.27964e-014 -7.15625e-015
lhumerus -65.0632 18.9251 55.422
lradius 3.45869
lwrist -23.3594
lhand -18.147 -7.79402
lfingers 7.12502
lthumb 8.12846 22.0296
rfemur 5.53174 6.63273 20.8594
rtibia 42.5298
rfoot 23.7168 4.68011
rtoes -14.3913
lfemur -40.9907 3.26142 -20.4466
ltibia 37.0225
lfoot -5.31598 3.743
ltoes 2.87661
174
root 8.01141 16.0187 9.82166 6.55406 -11.4287 -0.221657
lowerback -1.09752 5.07484 -0.643367
upperback -3.35607 6.72739 -1.90152
thorax -2.68226 3.35183 -1.67156
lowerneck -12.4441 -2.53081 -3.05476
upperneck 14.2379 -4.3253 8.82262
head 6.65304 -1.52469 2.93277
rclavicle 9.83363e-015 -1.07344e-014
rhumerus -28.1077 3.07372 -85.1307
rradius 73.5679
rwrist -3.78513
rhand 178.619 -70.3191
rfingers 7.12502
rthumb -155.733 -41.8349
lclavicle 9.83363e-015 -1.07344e-014
lhumerus -64.3826 19.523 55.2206
lradius 3.91277
lwrist -23.4415
lhand -18.2107 -8.10286
lfingers 7.12502
lthumb 8.06701 21.7232
rfemur 3.7983 6.85751 19.4131
rtibia 46.516
rfoot 25.9774 1.38725
rtoes -12.0194
lfemur -39.959 3.40449 -22.0326
ltibia 37.6105
lfoot -6.29264 3.12403
ltoes 3.6015
175
root 8.02088 16.0318 10.0626 6.11704 -11.531 0.59384
lowerback -0.820616 4.98994 -1.40437
upperback -3.17836 6.59905 -2.16494
thorax -2.712 3.30196 -1.54104
lowerneck -12.3666 -2.41971 -2.90744
upperneck 13.8542 -4.16025 8.75132
head 6.50234 -1.45427 2.89837
rclavicle 3.46459e-014 4.37326e-015
rhumerus -29.2108 3.48404 -85.9592
rradius 73.8331
rwrist -7.74095
rhand 174.379 -68.55
rfingers 7.12502
rthumb -159.804 -39.5799
lclavicle 3.46459e-014 4.37326e-015
lhumerus -63.684 20.2078 54.9507
lradius 4.13287
lwrist -23.3291
lhand -18.9552 -8.78581
lfingers 7.12502
lthumb 7.34839 21.0666
rfemur 2.4591 6.92551 18.4312
rtibia 50.3141
rfoot 27.0593 -1.1363
rtoes -10.3169
lfemur -38.8311 3.57675 -23.2078
ltibia 38.0586
lfoot -7.07825 2.48532
ltoes 4.34449
176
root 8.02886 16.039 10.2908 5.81644 -11.0853 0.824227
lowerback -0.330928 4.72964 -1.57658
upperback -3.06696 6.23738 -2.22407
thorax -2.88828 3.12356 -1.54127
lowerneck -12.2612 -2.32985 -2.93652
upperneck 13.4288 -4.00581 8.78815
head 6.3406 -1.39123 2.92686
rclavicle 7.74453e-014 1.39149e-014
rhumerus -30.4407 4.42663 -87.1263
rradius 74.3961
rwrist -14.5922
rhand 166.861 -63.6079
rfingers 7.12502
rthumb -167.04 -34.0304
lclavicle 7.74453e-014 1.39149e-014
lhumerus -62.8751 21.0242 54.7295
lradius 4.07999
lwrist -23.154
lhand -19.3614 -8.45727
lfingers 7.12502
lthumb 6.95629 21.4084
rfemur 1.10733 6.45728 18.209
rtibia 53.9171
rfoot 27.0748 -5.36999
rtoes -4.74335
lfemur -37.7933 3.22173 -23.6466
ltibia 38.3758
lfoot -7.88148 2.0382
ltoes 6.02138
